<svg width="1057" height="104" viewBox="0 0 1057 104" fill="none" xmlns="http://www.w3.org/2000/svg">
<path d="M7.74329 0.75708L499.863 43.812C516.919 45.3042 529.536 60.3402 528.044 77.3959L5.04146 31.6391L7.74329 0.75708Z" fill="#E8E8E8"/>
<path d="M527.47 76.6389C525.978 59.5832 538.595 44.5472 555.651 43.055L1047.77 7.011e-05L1050.47 30.8821L527.47 76.6389Z" fill="#E8E8E8"/>
<line x1="764.998" y1="38.154" x2="1046.78" y2="13.5014" stroke="#8D8D8D"/>
<line x1="572.998" y1="55.3588" x2="742.819" y2="40.5014" stroke="#8D8D8D"/>
<line x1="555.998" y1="66.5014" x2="1046.78" y2="23.5014" stroke="#8D8D8D"/>
<line x1="575.962" y1="61.0986" x2="1046.81" y2="19.9044" stroke="#8D8D8D"/>
<line x1="9.92847" y1="7.50156" x2="293.793" y2="33.2523" stroke="#8D8D8D"/>
<line x1="8.78491" y1="20.5014" x2="499.571" y2="63.4396" stroke="#8D8D8D"/>
<line x1="9.23527" y1="15.5014" x2="480.927" y2="57.0987" stroke="#8D8D8D"/>
<path d="M1.74316 28.9998L518.768 74.2336L517.897 84.1955C517.415 89.6974 512.565 93.7673 507.063 93.2859L9.96198 49.7952C4.46015 49.3139 0.390259 44.4635 0.871607 38.9617L1.74316 28.9998Z" fill="#261937"/>
<path d="M538.041 73.9995L1055.07 28.7657L1055.94 38.7276C1056.42 44.2295 1052.35 49.0798 1046.85 49.5611L549.746 93.0518C544.245 93.5332 539.394 89.4633 538.913 83.9615L538.041 73.9995Z" fill="#261937"/>
<path d="M464.041 74.0002H591.041V94.0002C591.041 99.5231 586.564 104 581.041 104H474.041C468.519 104 464.041 99.5231 464.041 94.0002V74.0002Z" fill="#261937"/>
</svg>
